<?xml version="1.0" standalone="no"?>
<!DOCTYPE svg PUBLIC "-//W3C//DTD SVG 20010904//EN"
 "http://www.w3.org/TR/2001/REC-SVG-20010904/DTD/svg10.dtd">
<svg version="1.0" xmlns="http://www.w3.org/2000/svg"
 width="500.000000pt" height="500.000000pt" viewBox="0 0 500.000000 500.000000"
 preserveAspectRatio="xMidYMid meet">
<metadata>
Created by potrace 1.14, written by Peter Selinger 2001-2017
</metadata>
<g transform="translate(0.000000,500.000000) scale(0.100000,-0.100000)"
fill="#000000" stroke="none">
<path d="M0 2500 l0 -2500 2500 0 2500 0 0 2500 0 2500 -2500 0 -2500 0 0
-2500z m3912 1740 c156 -48 280 -172 328 -329 19 -61 20 -100 20 -1411 0
-1311 -1 -1350 -20 -1411 -48 -157 -172 -281 -328 -329 -62 -19 -95 -20 -934
-20 -577 0 -867 3 -863 10 4 7 305 10 871 10 843 0 866 0 925 20 149 50 258
160 308 308 21 61 21 75 21 1412 0 1337 0 1351 -21 1412 -50 148 -159 258
-308 308 -60 20 -78 20 -1408 20 -1125 0 -1356 -3 -1394 -14 -165 -50 -292
-179 -335 -341 -20 -74 -20 -2696 0 -2770 23 -87 65 -157 138 -228 41 -39 63
-67 54 -67 -9 0 -45 29 -80 64 -68 68 -118 156 -136 242 -7 33 -10 489 -8
1404 l3 1355 28 66 c56 132 179 247 310 288 60 19 96 20 1413 20 1321 1 1353
1 1416 -19z m-292 -261 c146 -23 271 -116 333 -246 l32 -68 0 -1170 0 -1170
-32 -68 c-38 -79 -114 -163 -181 -200 -108 -59 -66 -57 -1272 -57 -1206 0
-1164 -2 -1272 57 -67 37 -143 121 -181 200 l-32 68 -3 1140 c-3 1276 -7 1208
68 1323 64 100 173 171 290 191 79 13 2168 13 2250 0z"/>
<path d="M1328 3924 c-109 -33 -217 -138 -255 -246 -17 -50 -18 -113 -18
-1183 0 -862 3 -1139 12 -1170 34 -110 129 -212 240 -256 l58 -24 1135 0 1135
0 58 23 c105 43 189 126 232 229 19 47 20 79 23 1163 2 821 0 1130 -8 1170
-26 119 -106 220 -218 273 l-67 32 -1140 2 c-968 1 -1147 0 -1187 -13z m1447
-367 c95 -21 208 -61 264 -94 64 -37 154 -130 184 -189 80 -158 86 -366 13
-519 -53 -114 -117 -174 -253 -241 l-116 -57 101 -32 c125 -40 198 -83 267
-157 100 -107 148 -243 148 -418 0 -129 -15 -204 -59 -297 -43 -91 -113 -167
-203 -220 -87 -53 -165 -80 -301 -105 -95 -18 -161 -21 -692 -25 l-588 -5 0
70 0 70 78 7 c122 11 177 42 213 120 18 38 19 86 19 925 0 568 -4 898 -10 922
-20 70 -110 128 -201 128 -20 0 -51 3 -68 6 -31 6 -31 7 -31 71 l0 64 583 -4
c478 -3 594 -7 652 -20z"/>
<path d="M2190 2975 l0 -448 198 6 c258 8 358 33 437 112 77 78 111 206 102
384 -7 134 -28 198 -85 262 -85 94 -166 117 -454 126 l-198 6 0 -448z"/>
<path d="M2190 1870 l0 -502 253 4 c225 4 259 7 317 26 184 61 256 173 267
417 11 255 -49 414 -184 488 -89 48 -157 58 -415 64 l-238 5 0 -502z"/>
</g>
</svg>
